<svg width="14" height="14" viewBox="0 0 14 14" fill="none" xmlns="http://www.w3.org/2000/svg">
<g clip-path="url(#clip0_129_1330)">
<rect width="12.3014" height="12.3014" transform="translate(0.734467 0.727783)" fill="#1877F2"/>
<path d="M12.7796 6.91425C12.7796 3.65885 10.1406 1.01983 6.88517 1.01983C3.62977 1.01983 0.990753 3.65885 0.990753 6.91425C0.990753 9.85632 3.14626 12.2949 5.96417 12.7371V8.61811H4.46754V6.91425H5.96417V5.61564C5.96417 4.13835 6.84416 3.32234 8.19058 3.32234C8.83547 3.32234 9.51003 3.43747 9.51003 3.43747V4.88805H8.76676C8.03452 4.88805 7.80617 5.34241 7.80617 5.80855V6.91425H9.44095L9.17962 8.61811H7.80617V12.7371C10.6241 12.2949 12.7796 9.85632 12.7796 6.91425Z" fill="white"/>
</g>
<defs>
<clipPath id="clip0_129_1330">
<rect width="12.3014" height="12.3014" fill="white" transform="translate(0.734467 0.727783)"/>
</clipPath>
</defs>
</svg>
