<svg width="15" height="15" viewBox="0 0 15 15" fill="none" xmlns="http://www.w3.org/2000/svg">
<g clip-path="url(#clip0_152_235)">
<path d="M14.6706 10.1544L12.8819 11.9438L11.9981 11.06L13.0581 10H8.75063V8.75002H13.0981L11.9981 7.6494L12.8819 6.76565L14.6706 8.5544C15.1119 8.99565 15.1119 9.71315 14.6706 10.1544ZM4.0625 6.87502C3.545 6.87502 3.125 7.29502 3.125 7.81252C3.125 8.33002 3.545 8.75002 4.0625 8.75002C4.58 8.75002 5 8.33002 5 7.81252C5 7.29502 4.58 6.87502 4.0625 6.87502ZM8.75 11.25H10V15H0V2.62502C0 1.73502 0.63375 0.961896 1.50688 0.786896L5.2575 0.0368963C5.8125 -0.0718537 6.37812 0.0687713 6.81437 0.425646C7.08187 0.645021 7.26937 0.933146 7.38188 1.25002H8.12563C9.15938 1.25002 10.0006 2.09127 10.0006 3.12502V7.50002H8.75063V3.12502C8.75063 2.78002 8.47062 2.50002 8.12563 2.50002H7.50063V13.75H8.75063V11.25H8.75ZM6.25 1.87565C6.25 1.68752 6.16687 1.51127 6.02125 1.39252C5.87625 1.27377 5.68563 1.2269 5.5025 1.26252L1.7525 2.01252C1.46125 2.07127 1.25 2.32877 1.25 2.62502V13.75H6.25V1.87565Z" fill="black"/>
</g>
<defs>
<clipPath id="clip0_152_235">
<rect width="15" height="15" fill="white"/>
</clipPath>
</defs>
</svg>
