<svg width="12" height="14" viewBox="0 0 12 14" fill="none" xmlns="http://www.w3.org/2000/svg">
<path d="M8.91666 0H3.08332C2.31006 0.00092625 1.56873 0.308514 1.02195 0.855295C0.475171 1.40208 0.167583 2.1434 0.166656 2.91667V11.6667C0.166656 12.2855 0.412489 12.879 0.850074 13.3166C1.28766 13.7542 1.88115 14 2.49999 14H8.91666C9.68992 13.9991 10.4312 13.6915 10.978 13.1447C11.5248 12.5979 11.8324 11.8566 11.8333 11.0833V2.91667C11.8324 2.1434 11.5248 1.40208 10.978 0.855295C10.4312 0.308514 9.68992 0.00092625 8.91666 0ZM10.6667 2.91667V9.33333H3.66666V1.16667H8.91666C9.38079 1.16667 9.82591 1.35104 10.1541 1.67923C10.4823 2.00742 10.6667 2.45254 10.6667 2.91667ZM2.49999 1.267V9.33333C2.09027 9.33298 1.68776 9.44105 1.33332 9.64658V2.91667C1.33337 2.55482 1.44559 2.20188 1.65453 1.90645C1.86346 1.61102 2.15884 1.38762 2.49999 1.267ZM8.91666 12.8333H2.49999C2.19057 12.8333 1.89382 12.7104 1.67503 12.4916C1.45624 12.2728 1.33332 11.9761 1.33332 11.6667C1.33332 11.3572 1.45624 11.0605 1.67503 10.8417C1.89382 10.6229 2.19057 10.5 2.49999 10.5H10.6667V11.0833C10.6667 11.5475 10.4823 11.9926 10.1541 12.3208C9.82591 12.649 9.38079 12.8333 8.91666 12.8333Z" fill="black"/>
</svg>
